# xmcd CD database file
#
# Track frame offsets:
#	150
#	25682
#	55479
#	81728
#	104338
#	145560
#	178269
#	207150
#	234105
#
# Disc length: 3286 seconds
#
# Revision: 0
# Processed by: cddbd v1.5.2PL0 Copyright (c) Steve Scherf et al.
# Submitted via: CDex 1.51
#
DISCID=760cd409
DTITLE=Zuleikha - Mirabai - Royal Tea of Love
DYEAR=2006
DGENRE=New Age
TTITLE0=Kiss of Bliss
TTITLE1=Zikr (in 7)
TTITLE2=Durga Ma/Homage to the Great Mother
TTITLE3=Queen's Riding Zikr
TTITLE4=Om Mani Padme Hum/Hail to the Jewel in the Lotus of the Heart
TTITLE5=Zikr (#ma)
TTITLE6=Zikr (in 7) #2
TTITLE7=Matri Guru Sharinam/Always Take the Name of the Divine Mother
TTITLE8=Spirit Lives
EXTD=YEAR: 2006
EXTT0=
EXTT1=
EXTT2=
EXTT3=
EXTT4=
EXTT5=
EXTT6=
EXTT7=
EXTT8=
PLAYORDER=
